<svg width="136" height="37" viewBox="0 0 136 37" fill="none" xmlns="http://www.w3.org/2000/svg">
<path d="M10.9141 4.17969C5.53906 6.83594 2.85156 11.7656 2.85156 18.9688C2.85156 23.7812 4.25 27.4297 7.04688 29.9141C7.96875 30.7422 9.0625 31.4922 10.3281 32.1641C7.67188 28.9453 6.34375 24.2578 6.34375 18.1016C6.34375 11.9922 7.86719 7.35156 10.9141 4.17969ZM18.2969 0.0546875C22.6562 0.0546875 26.1172 1.57812 28.6797 4.625L29.9688 0.921875C30.1719 0.34375 30.5 0.0546875 30.9531 0.0546875C31.4062 0.0546875 31.75 0.1875 31.9844 0.453125C32.2344 0.703125 32.3594 0.945312 32.3594 1.17969C32.3594 1.39844 32.3281 1.57031 32.2656 1.69531L28.5391 12.5938C28.3828 13.125 28.0547 13.3906 27.5547 13.3906C27.0703 13.3906 26.7109 13.2578 26.4766 12.9922C26.2422 12.7266 26.125 12.5 26.125 12.3125C26.125 12.1094 26.1562 11.9453 26.2188 11.8203L27.7188 7.4375C26.3906 5.3125 24.6172 3.85938 22.3984 3.07812C21.6641 2.82812 20.75 2.70312 19.6562 2.70312C18.5781 2.70312 17.4766 2.92188 16.3516 3.35938C15.2422 3.79688 14.2656 4.39062 13.4219 5.14062C12.5938 5.89062 11.8828 6.77344 11.2891 7.78906C10.6953 8.78906 10.2188 9.85938 9.85938 11C9.15625 13.1562 8.80469 15.5234 8.80469 18.1016C8.80469 21.8984 9.39844 25.2344 10.5859 28.1094C11.5078 30.3281 12.8125 31.9062 14.5 32.8438C15.375 33.3281 16.4375 33.5703 17.6875 33.5703C18.9531 33.5703 20.1953 33.375 21.4141 32.9844C22.6484 32.5938 23.7656 32.0312 24.7656 31.2969C26.875 29.7812 28.3516 27.7812 29.1953 25.2969C29.3672 24.6562 29.6953 24.3359 30.1797 24.3359C30.6641 24.3359 31.0234 24.4688 31.2578 24.7344C31.4922 25 31.6094 25.2891 31.6094 25.6016V25.8828C31.5938 25.9141 31.5391 26.0703 31.4453 26.3516C31.3672 26.6328 31.2344 27 31.0469 27.4531C29.5625 30.8125 27.1562 33.2266 23.8281 34.6953C21.8281 35.5703 19.6094 35.9922 17.1719 35.9609C14.75 35.9453 12.4766 35.5312 10.3516 34.7188C8.24219 33.8906 6.45312 32.7344 4.98438 31.25C1.92187 28.2031 0.390625 24.1094 0.390625 18.9688C0.390625 12.3594 2.34375 7.42188 6.25 4.15625C9.54688 1.42188 13.5625 0.0546875 18.2969 0.0546875ZM51.1562 3.89844C51.1562 3.89844 50.0312 3.88281 47.7812 3.85156L47.2656 32.75C47.5312 32.7188 47.7969 32.7031 48.0625 32.7031C48.5625 32.7031 49.0078 32.7031 49.3984 32.7031C49.7891 32.7031 50.1172 32.7188 50.3828 32.75L51.1562 3.89844ZM37.7031 0.78125C40.9531 1.21875 45.2031 1.4375 50.4531 1.4375C55.7031 1.4375 59.2969 1.35938 61.2344 1.20312H61.3281C61.6094 1.20312 61.8672 1.30469 62.1016 1.50781C62.3359 1.69531 62.4609 1.86719 62.4766 2.02344C62.5078 2.16406 62.5469 2.35938 62.5938 2.60938C62.6406 2.85938 62.7031 3.19531 62.7812 3.61719C62.8594 4.03906 62.9531 4.52344 63.0625 5.07031C63.1875 5.61719 63.3203 6.1875 63.4609 6.78125C63.8203 8.25 64.1484 9.39844 64.4453 10.2266L64.4922 10.625C64.4922 10.9531 64.3594 11.2422 64.0938 11.4922C63.8438 11.7422 63.5781 11.8672 63.2969 11.8672C62.7031 11.8672 62.3047 11.5781 62.1016 11C61.2891 8.64062 60.6953 6.22656 60.3203 3.75781C58.5391 3.85156 56.2969 3.89844 53.5938 3.89844L52.8203 32.8438C55.5234 32.9375 57 33.1328 57.25 33.4297C57.5 33.7109 57.625 34.0312 57.625 34.3906C57.625 34.7344 57.4922 35.0156 57.2266 35.2344C56.9766 35.4688 56.7109 35.5859 56.4297 35.5859H56.2891C54.1328 35.3203 51.6484 35.1875 48.8359 35.1875C46.0234 35.1875 43.5938 35.3203 41.5469 35.5859H41.4062C41.0625 35.5859 40.7656 35.4531 40.5156 35.1875C40.2812 34.9219 40.1641 34.6328 40.1641 34.3203C40.1641 34.0078 40.2656 33.7344 40.4688 33.5C40.7969 33.1719 42.2422 32.9531 44.8047 32.8438L45.3438 3.75781C42.875 3.66406 40.5859 3.53125 38.4766 3.35938C38.3828 3.78125 38.2656 4.29688 38.125 4.90625C38 5.51562 37.8594 6.16406 37.7031 6.85156C37.2031 8.88281 36.8828 10.1406 36.7422 10.625C36.4922 11.4531 36.0781 11.8672 35.5 11.8672C35.1406 11.8672 34.8438 11.7422 34.6094 11.4922C34.375 11.2266 34.2578 11 34.2578 10.8125V10.4375C34.2578 10.375 34.3203 10.125 34.4453 9.6875C34.5859 9.25 34.7734 8.53906 35.0078 7.55469C35.2422 6.57031 35.4531 5.64844 35.6406 4.78906C36.0938 2.83594 36.3203 1.82031 36.3203 1.74219C36.4922 1.10156 36.8906 0.78125 37.5156 0.78125H37.7031ZM77.0781 31.8828C74.4531 28.8203 73.1406 24.1797 73.1406 17.9609C73.1406 11.8672 74.9297 7.25781 78.5078 4.13281C78.6016 4.03906 78.7188 3.94531 78.8594 3.85156C76.1406 5.05469 73.9609 6.95312 72.3203 9.54688C70.6328 12.2031 69.7891 15.1328 69.7891 18.3359C69.7891 22.6641 71.2266 26.3672 74.1016 29.4453C74.9922 30.3984 75.9844 31.2109 77.0781 31.8828ZM98.8281 18.4062C98.8281 17.2969 98.6875 16.1641 98.4062 15.0078C98.125 13.8359 97.7266 12.6953 97.2109 11.5859C96.7109 10.4609 96.1016 9.39844 95.3828 8.39844C94.6797 7.38281 93.9062 6.5 93.0625 5.75C91.2031 4.09375 89.2969 3.26562 87.3438 3.26562C83.5 3.26562 80.5156 4.84375 78.3906 8C76.5156 10.7969 75.5781 14.1172 75.5781 17.9609C75.5781 20.7734 75.8281 23.0078 76.3281 24.6641C76.8281 26.3203 77.3516 27.6562 77.8984 28.6719C78.4609 29.6719 79.1484 30.5469 79.9609 31.2969C81.6953 32.875 83.8828 33.6641 86.5234 33.6641C88.6328 33.6641 90.6875 32.8594 92.6875 31.25C94.5 29.7656 95.9844 27.8125 97.1406 25.3906C98.2656 23.0156 98.8281 20.6875 98.8281 18.4062ZM101.266 18.4062C101.266 20 101.055 21.5625 100.633 23.0938C100.227 24.6094 99.6484 26.0391 98.8984 27.3828C98.1641 28.7266 97.2734 29.9531 96.2266 31.0625C95.1797 32.1719 94.0312 33.125 92.7812 33.9219C90.1406 35.5938 87.3047 36.4297 84.2734 36.4297C79.6328 36.4297 75.6406 34.6562 72.2969 31.1094C70.2031 28.8906 68.75 26.2344 67.9375 23.1406C67.5312 21.5938 67.3281 19.9922 67.3281 18.3359C67.3281 15.0703 68.1016 12.0312 69.6484 9.21875C71.1328 6.51562 73.1641 4.34375 75.7422 2.70312C78.3516 1.0625 81.1953 0.242188 84.2734 0.242188C87.4453 0.242188 90.375 1.125 93.0625 2.89062C95.5781 4.54688 97.5703 6.77344 99.0391 9.57031C100.523 12.3672 101.266 15.3125 101.266 18.4062ZM109.703 9.26562C109.453 10.1562 109.328 11.0703 109.328 12.0078C109.328 12.9453 109.453 13.7969 109.703 14.5625C109.969 15.3281 110.5 16.0625 111.297 16.7656C113.109 18.3594 116.258 19.625 120.742 20.5625C123.633 21.1875 125.82 21.8828 127.305 22.6484C128.805 23.3984 129.969 24.1875 130.797 25.0156C131.641 25.8281 132.18 26.8047 132.414 27.9453C132.633 27.3047 132.742 26.5781 132.742 25.7656C132.742 24.9375 132.578 24.1641 132.25 23.4453C131.938 22.7266 131.516 22.1016 130.984 21.5703C130.469 21.0234 129.867 20.5469 129.18 20.1406C128.492 19.7344 127.781 19.3906 127.047 19.1094C126.047 18.7188 124.844 18.3516 123.438 18.0078C122.031 17.6641 120.836 17.3672 119.852 17.1172C118.867 16.8672 117.906 16.5859 116.969 16.2734C116.031 15.9609 115.141 15.6016 114.297 15.1953C113.453 14.7891 112.703 14.3047 112.047 13.7422C110.656 12.5391 109.875 11.0469 109.703 9.26562ZM108.789 27.1719C112.43 31.8438 116.961 34.1797 122.383 34.1797C125.727 34.1797 128.062 33.3594 129.391 31.7188C129.906 31.1094 130.164 30.3984 130.164 29.5859C130.164 28.7734 129.984 28.0938 129.625 27.5469C129.266 26.9844 128.797 26.4844 128.219 26.0469C127.641 25.6094 126.984 25.2266 126.25 24.8984C125.531 24.5547 124.805 24.2578 124.07 24.0078C122.898 23.6016 121.695 23.2734 120.461 23.0234C119.227 22.7734 118.062 22.5078 116.969 22.2266C115.875 21.9297 114.836 21.5781 113.852 21.1719C112.867 20.7656 111.953 20.2891 111.109 19.7422C110.266 19.1953 109.531 18.5469 108.906 17.7969C107.594 16.2188 106.938 14.2266 106.938 11.8203C106.938 8.24219 108.266 5.40625 110.922 3.3125C113.359 1.39062 116.312 0.429688 119.781 0.429688C121.734 0.429688 123.891 0.828125 126.25 1.625C128.531 2.40625 130.109 3.30469 130.984 4.32031C131.344 3.35156 131.852 2.17188 132.508 0.78125C132.773 0.328125 133.109 0.101562 133.516 0.101562C133.938 0.101562 134.266 0.234375 134.5 0.5C134.734 0.75 134.852 1 134.852 1.25C134.852 1.48438 134.625 2.07031 134.172 3.00781C133.719 3.94531 133.227 5.26562 132.695 6.96875C132.18 8.65625 131.812 10.3672 131.594 12.1016C131.562 12.4141 131.43 12.6719 131.195 12.875C130.977 13.0625 130.695 13.1562 130.352 13.1562C130.023 13.1562 129.742 13.0234 129.508 12.7578C129.273 12.4922 129.156 12.2266 129.156 11.9609V11.8203C129.344 10.1641 129.68 8.53125 130.164 6.92188C129.883 6.0625 128.516 5.17188 126.062 4.25C123.625 3.3125 121.453 2.84375 119.547 2.84375C116.266 2.84375 114.023 3.85938 112.82 5.89062C112.398 6.59375 112.18 7.44531 112.164 8.44531C112.32 10.7266 113.773 12.4219 116.523 13.5312C117.852 14.0938 119.164 14.5156 120.461 14.7969C121.758 15.0625 122.953 15.3281 124.047 15.5938C125.156 15.8438 126.43 16.2031 127.867 16.6719C129.305 17.1406 130.562 17.7578 131.641 18.5234C134.016 20.1953 135.203 22.6484 135.203 25.8828C135.203 29.1016 133.805 31.75 131.008 33.8281C128.461 35.7031 125.602 36.6406 122.43 36.6406C116.898 36.6406 112.289 34.6719 108.602 30.7344V31.2969C108.602 32.2812 108.633 33.2578 108.695 34.2266V34.3203C108.695 34.6328 108.586 34.9062 108.367 35.1406C108.164 35.375 107.883 35.5 107.523 35.5156C107.18 35.5312 106.891 35.4297 106.656 35.2109C106.422 34.9922 106.289 34.6719 106.258 34.25C106.195 33.4062 106.164 32.3125 106.164 30.9688C106.164 28.4844 106.453 25.7969 107.031 22.9062C107.203 22.2344 107.602 21.8984 108.227 21.8984C108.586 21.8984 108.883 22.0391 109.117 22.3203C109.352 22.5859 109.469 22.7969 109.469 22.9531V23.2344C109.469 23.2812 109.438 23.4062 109.375 23.6094C109.328 23.8125 109.273 24.0703 109.211 24.3828C109.164 24.6797 109.109 24.9688 109.047 25.25C109 25.5781 108.914 26.2188 108.789 27.1719Z" fill="black"/>
</svg>
